# xmcd
#
# Track frame offsets:
#	150
#	8881
#	23950
#	35905
#	47992
#	59097
#	68802
#	80143
#	94524
#	108650
#	118212
#	131022
#
# Disc length: 1880 seconds
#
# Revision: 1
# Processed by: cddbd v1.5.2PL0 Copyright (c) Steve Scherf et al.
# Submitted via: audiograbber 1.83.01
#
DISCID=b307560c
DTITLE=John Schroeder Orchestra, The - The Dolly Catcher
DYEAR=1900
DGENRE=Easy Listening
TTITLE0=The Dolly Catcher
TTITLE1=San Francisco (Flowers In Your Hair)
TTITLE2=Explosive Corrosive Joseph
TTITLE3=To Wendy With Love
TTITLE4=Epistle To Dippy
TTITLE5=She'd Rather Be With Me
TTITLE6=Softly Softly Catchee Dolly
TTITLE7=Lucy In The Sky With Diamonds
TTITLE8=I Was Made To Love Her
TTITLE9=Up, Up And Away
TTITLE10=But She Ran The Other Way
TTITLE11=Things I Should Have Said
EXTD=
EXTT0=
EXTT1=
EXTT2=
EXTT3=
EXTT4=
EXTT5=
EXTT6=
EXTT7=
EXTT8=
EXTT9=
EXTT10=
EXTT11=
PLAYORDER=
